<?xml version="1.0" encoding="utf-8"?>
<!-- Generator: Adobe Illustrator 27.5.0, SVG Export Plug-In . SVG Version: 6.00 Build 0)  -->
<svg version="1.1" id="Layer_1" xmlns="http://www.w3.org/2000/svg" xmlns:xlink="http://www.w3.org/1999/xlink" x="0px" y="0px"
	 viewBox="0 0 4000 7000" style="enable-background:new 0 0 4000 7000;" xml:space="preserve">
<g>
	<rect x="0.487" y="1.285" style="fill-rule:evenodd;clip-rule:evenodd;fill:#01052D;" width="3999.273" height="6998.715"/>
	<g>
		<defs>
			<path id="SVGID_1_" d="M2286.099,1.285c0,0,56.819,1211.663,885.24,1565.895c828.421,354.229,37.508,1180.764,828.421,1818.377
				V1.285H2286.099z"/>
		</defs>
		<clipPath id="SVGID_00000109712669307249995170000014812129257558618254_">
			<use xlink:href="#SVGID_1_"  style="overflow:visible;"/>
		</clipPath>
		
			<linearGradient id="SVGID_00000176750218295716310670000010180508923636463496_" gradientUnits="userSpaceOnUse" x1="3142.9697" y1="1693.3877" x2="3990.9983" y2="993.5833">
			<stop  offset="0" style="stop-color:#021B8C"/>
			<stop  offset="1" style="stop-color:#020C6A"/>
		</linearGradient>
		
			<rect x="2286.099" y="1.285" style="clip-path:url(#SVGID_00000109712669307249995170000014812129257558618254_);fill:url(#SVGID_00000176750218295716310670000010180508923636463496_);" width="1713.661" height="3384.272"/>
	</g>
	<g>
		<defs>
			<path id="SVGID_00000115506507960133648680000012360225347615916176_" d="M1471.016,1.285
				c-245.914,2778.648,1898.357,1509.711,1619.339,2864.704c-134.947,655.324,134.696,749.781,909.405,797.01v-277.442
				c-790.913-637.613,0-1464.147-828.421-1818.377C2342.918,1212.948,2286.099,1.285,2286.099,1.285H1471.016z"/>
		</defs>
		<clipPath id="SVGID_00000134948943140940832780000006505345164185783226_">
			<use xlink:href="#SVGID_00000115506507960133648680000012360225347615916176_"  style="overflow:visible;"/>
		</clipPath>
		
			<linearGradient id="SVGID_00000066491778365092479880000001161969593044348289_" gradientUnits="userSpaceOnUse" x1="1657.4363" y1="2178.4729" x2="3377.1328" y2="1554.8208">
			<stop  offset="0" style="stop-color:#021B8C"/>
			<stop  offset="1" style="stop-color:#01052D"/>
		</linearGradient>
		
			<rect x="1225.102" y="1.285" style="clip-path:url(#SVGID_00000134948943140940832780000006505345164185783226_);fill:url(#SVGID_00000066491778365092479880000001161969593044348289_);" width="2774.658" height="3661.714"/>
	</g>
	<g>
		<defs>
			<path id="SVGID_00000060718047147103742990000003667948260397925285_" d="M1714.149,7000c0,0-56.814-1211.661-885.24-1565.893
				C0.487,5079.877,791.405,4253.343,0.487,3615.73V7000H1714.149z"/>
		</defs>
		<clipPath id="SVGID_00000134209845567425046680000013914209333415071404_">
			<use xlink:href="#SVGID_00000060718047147103742990000003667948260397925285_"  style="overflow:visible;"/>
		</clipPath>
		
			<linearGradient id="SVGID_00000066482528999791147780000002015903671048082093_" gradientUnits="userSpaceOnUse" x1="857.3019" y1="5307.8784" x2="9.2747" y2="6007.7788">
			<stop  offset="0" style="stop-color:#021B8C"/>
			<stop  offset="1" style="stop-color:#020C6A"/>
		</linearGradient>
		
			<rect x="0.487" y="3615.73" style="clip-path:url(#SVGID_00000134209845567425046680000013914209333415071404_);fill:url(#SVGID_00000066482528999791147780000002015903671048082093_);" width="1713.661" height="3384.27"/>
	</g>
	<g>
		<defs>
			<path id="SVGID_00000078016083945949412170000006801657059588300181_" d="M2529.231,7000
				C2775.146,4221.354,630.874,5490.291,909.897,4135.298c134.942-655.324-134.701-749.783-909.41-797.012v277.444
				c790.918,637.613,0,1464.147,828.421,1818.377C1657.334,5788.339,1714.149,7000,1714.149,7000H2529.231z"/>
		</defs>
		<clipPath id="SVGID_00000172410937431645365260000017504100429009829289_">
			<use xlink:href="#SVGID_00000078016083945949412170000006801657059588300181_"  style="overflow:visible;"/>
		</clipPath>
		
			<linearGradient id="SVGID_00000065066929586274005330000005086321859130977451_" gradientUnits="userSpaceOnUse" x1="2342.7908" y1="4822.8721" x2="623.0928" y2="5446.4297">
			<stop  offset="0" style="stop-color:#021B8C"/>
			<stop  offset="1" style="stop-color:#01052D"/>
		</linearGradient>
		
			<rect x="0.487" y="3338.286" style="clip-path:url(#SVGID_00000172410937431645365260000017504100429009829289_);fill:url(#SVGID_00000065066929586274005330000005086321859130977451_);" width="2774.658" height="3661.714"/>
	</g>
	<g>
		<defs>
			<path id="SVGID_00000058551740573338816110000000633727044607003057_" d="M586.782,1589.912
				c-252.359-579.568,648.784-405.383,879.014-852.046c-20.08-207.499-20.094-450.602,5.221-736.581H0.487v3337.001
				c240.912,14.686,432.979,33.941,579.229,73.206c9.366-9.24,18.773-18.655,28.217-28.252
				C1315.099,2665.043,768.084,2006.29,586.782,1589.912"/>
		</defs>
		<clipPath id="SVGID_00000105406459554217851390000011001205642474028988_">
			<use xlink:href="#SVGID_00000058551740573338816110000000633727044607003057_"  style="overflow:visible;"/>
		</clipPath>
		
			<linearGradient id="SVGID_00000158012371337552730910000015105035308249769377_" gradientUnits="userSpaceOnUse" x1="2255.1912" y1="3251.5994" x2="-297.4309" y2="655.6821">
			<stop  offset="0" style="stop-color:#021B8C"/>
			<stop  offset="1" style="stop-color:#01052D"/>
		</linearGradient>
		
			<rect x="0.487" y="1.285" style="clip-path:url(#SVGID_00000105406459554217851390000011001205642474028988_);fill:url(#SVGID_00000158012371337552730910000015105035308249769377_);" width="1470.529" height="3410.208"/>
	</g>
	<g>
		<defs>
			<path id="SVGID_00000170972413799337277110000011687402739406895247_" d="M3413.47,5411.373
				c252.354,579.57-648.789,405.383-879.014,852.048c20.076,207.5,20.09,450.602-5.225,736.579H3999.76V3662.999
				c-240.907-14.684-432.979-33.938-579.229-73.204c-9.365,9.24-18.773,18.655-28.217,28.25
				C2685.153,4336.244,3232.164,4994.995,3413.47,5411.373"/>
		</defs>
		<clipPath id="SVGID_00000137817711839063193280000000447916536066434203_">
			<use xlink:href="#SVGID_00000170972413799337277110000011687402739406895247_"  style="overflow:visible;"/>
		</clipPath>
		
			<linearGradient id="SVGID_00000114754607829524441260000005970002814225619856_" gradientUnits="userSpaceOnUse" x1="1745.045" y1="3749.675" x2="4297.666" y2="6345.5908">
			<stop  offset="0" style="stop-color:#021B8C"/>
			<stop  offset="1" style="stop-color:#01052D"/>
		</linearGradient>
		
			<rect x="2529.231" y="3589.794" style="clip-path:url(#SVGID_00000137817711839063193280000000447916536066434203_);fill:url(#SVGID_00000114754607829524441260000005970002814225619856_);" width="1470.529" height="3410.206"/>
	</g>
</g>
</svg>
